<?xml version="1.0" encoding="UTF-8" standalone="no"?>
<svg
   xmlns:dc="http://purl.org/dc/elements/1.1/"
   xmlns:cc="http://creativecommons.org/ns#"
   xmlns:rdf="http://www.w3.org/1999/02/22-rdf-syntax-ns#"
   xmlns:svg="http://www.w3.org/2000/svg"
   xmlns="http://www.w3.org/2000/svg"
   xmlns:sodipodi="http://sodipodi.sourceforge.net/DTD/sodipodi-0.dtd"
   xmlns:inkscape="http://www.inkscape.org/namespaces/inkscape"
   viewBox="0 0 335.45 368.09"
   version="1.1"
   id="svg44"
   sodipodi:docname="privacy.svg"
   inkscape:version="0.92.5 (2060ec1f9f, 2020-04-08)"
   inkscape:export-filename="C:\Proyectos\MM2015-Python-RSA-Encrypt-Decrypt\files\privacy.png"
   inkscape:export-xdpi="276.42001"
   inkscape:export-ydpi="276.42001">
  <metadata
     id="metadata48">
    <rdf:RDF>
      <cc:Work
         rdf:about="">
        <dc:format>image/svg+xml</dc:format>
        <dc:type
           rdf:resource="http://purl.org/dc/dcmitype/StillImage" />
      </cc:Work>
    </rdf:RDF>
  </metadata>
  <sodipodi:namedview
     pagecolor="#ffffff"
     bordercolor="#666666"
     borderopacity="1"
     objecttolerance="10"
     gridtolerance="10"
     guidetolerance="10"
     inkscape:pageopacity="0"
     inkscape:pageshadow="2"
     inkscape:window-width="2160"
     inkscape:window-height="1346"
     id="namedview46"
     showgrid="false"
     inkscape:zoom="0.64114755"
     inkscape:cx="-70.90961"
     inkscape:cy="184.045"
     inkscape:window-x="-11"
     inkscape:window-y="-11"
     inkscape:window-maximized="1"
     inkscape:current-layer="Layer_1-2" />
  <defs
     id="defs4">
    <style
       id="style2">.cls-1{fill:#fff;}.cls-2{fill:#e5e5e5;}.cls-3{fill:#426572;}.cls-4{fill:#fbc907;}.cls-5{fill:#f3a70f;}.cls-6{fill:#f9f9f9;}.cls-7{opacity:0.5;}.cls-8{fill:#7490a8;}</style>
  </defs>
  <title
     id="title6" />
  <g
     data-name="Layer 2"
     id="Layer_2">
    <g
       data-name="Layer 1"
       id="Layer_1-2">
      <rect
         class="cls-1"
         height="350"
         rx="36.38"
         ry="36.38"
         width="265"
         x="7.92"
         y="12.18"
         id="rect8" />
      <path
         class="cls-2"
         d="M5.18,326.17V304A37.59,37.59,0,0,0,42.77,341.6h195A37.59,37.59,0,0,0,275.33,304v22.15a37.59,37.59,0,0,1-37.59,37.59h-195A37.59,37.59,0,0,1,5.18,326.17Z"
         id="path10" />
      <path
         class="cls-3"
         d="M238.56,368.09h-195A43.64,43.64,0,0,1,0,324.51V43.59A43.64,43.64,0,0,1,43.59,0h195a43.64,43.64,0,0,1,43.59,43.59V123h-12V43.59A31.62,31.62,0,0,0,238.56,12h-195A31.62,31.62,0,0,0,12,43.59V324.51a31.62,31.62,0,0,0,31.59,31.59h195a31.62,31.62,0,0,0,31.59-31.59V279.93h12v44.58A43.64,43.64,0,0,1,238.56,368.09Z"
         id="path12" />
      <rect
         class="cls-3"
         height="12"
         width="134.11198"
         x="60.579407"
         y="90.68364"
         id="rect22"
         style="fill:#426572;stroke-width:1.20736861" />
      <rect
         class="cls-3"
         height="12"
         width="134.11198"
         x="60.579407"
         y="119.64365"
         id="rect24"
         style="fill:#426572;stroke-width:1.20736861" />
      <rect
         class="cls-3"
         height="12"
         width="134.11198"
         x="60.579407"
         y="148.61365"
         id="rect26"
         style="fill:#426572;stroke-width:1.20736861" />
      <path
         class="cls-4"
         d="M276.81,269.38s52.64-26.32,52.64-65.8V150.95l-52.64-13.16-52.64,13.16v52.64C224.18,243.06,276.81,269.38,276.81,269.38Z"
         id="path28" />
      <path
         class="cls-5"
         d="M329.45,178.58v22c0,39.48-52.64,65.8-52.64,65.8s-52.63-26.32-52.63-65.8v-22c0,39.48,52.63,65.8,52.63,65.8S329.45,218.06,329.45,178.58Z"
         id="path30" />
      <path
         class="cls-3"
         d="M276.81,272.65l-2.68-1.34c-2.28-1.14-56-28.47-56-71.16V142.83l58.64-14.66,58.64,14.66v57.32c0,42.7-53.67,70-56,71.16ZM230.18,152.2v48c0,30.5,36.33,53.16,46.63,59,10.29-5.82,46.64-28.55,46.64-59v-48l-46.64-11.66Z"
         id="path32" />
      <path
         class="cls-6"
         d="M250.25,163.07l15.5-3L276.4,158c1.16-.22,2.37-.37,3.51-.68,1.79-.48,1,.38-.17-.23,1.58.86,3.93,1.11,5.65,1.59l10.74,3,15.52,4.37c3.72,1,5.31-4.74,1.6-5.79l-16-4.5c-5.1-1.43-10.73-3.92-16-4.5-5-.55-11.25,1.87-16.13,2.81l-16.47,3.19c-3.79.73-2.18,6.52,1.6,5.79Z"
         id="path34" />
      <g
         class="cls-7"
         id="g40">
        <path
           class="cls-8"
           d="M38,35.95H72.77c3.86,0,3.87-6,0-6H38c-3.86,0-3.87,6,0,6Z"
           id="path36" />
        <path
           class="cls-8"
           d="M87.17,35.95h86.34c3.86,0,3.87-6,0-6H87.17c-3.86,0-3.87,6,0,6Z"
           id="path38" />
      </g>
      <rect
         class="cls-3"
         height="12"
         width="134.11198"
         x="61.959095"
         y="178.51288"
         id="rect22-4"
         style="fill:#426572;stroke-width:1.20736861" />
      <rect
         class="cls-3"
         height="12"
         width="134.11198"
         x="61.959095"
         y="207.47289"
         id="rect24-4"
         style="fill:#426572;stroke-width:1.20736861" />
      <rect
         class="cls-3"
         height="12"
         width="134.11198"
         x="61.959095"
         y="236.44289"
         id="rect26-0"
         style="fill:#426572;stroke-width:1.20736861" />
    </g>
  </g>
</svg>
